<svg xmlns="http://www.w3.org/2000/svg" xmlns:xlink="http://www.w3.org/1999/xlink" width="250" zoomAndPan="magnify" viewBox="0 0 375 374.999991" height="250" preserveAspectRatio="xMidYMid meet" version="1.0"><defs><g/><clipPath id="4baed36b97"><path d="M 154 123.207031 L 187 123.207031 L 187 165 L 154 165 Z M 154 123.207031 " clip-rule="nonzero"/></clipPath><clipPath id="c64991500a"><path d="M 153.308594 123.207031 L 187 123.207031 L 187 165.207031 L 153.308594 165.207031 Z M 153.308594 123.207031 " clip-rule="nonzero"/></clipPath></defs><path stroke-linecap="butt" transform="matrix(0.75, 0, 0, 0.75, 23.86954, 106.885855)" fill="none" stroke-linejoin="miter" d="M 46.715616 97.662616 L 21.288531 97.662616 L 21.288531 56.912613 L 114.361454 56.912613 L 114.361454 97.662616 L 88.934369 97.662616 L 88.934369 171.001162 L 46.715616 171.001162 Z M 175.627083 79.558448 L 175.627083 117.876159 L 160.147915 117.876159 C 158.533332 117.876159 157.720832 118.688659 157.720832 120.303242 L 157.720832 171.001162 L 117.611454 171.001162 L 117.611454 121.933451 C 117.611454 113.365742 119.455204 105.928241 123.142704 99.610533 C 126.830204 93.298032 131.965622 88.376157 138.543747 84.850115 C 145.121872 81.318865 152.653123 79.558448 161.142707 79.558448 Z M 178.73125 79.558448 L 218.840627 79.558448 L 218.840627 171.001162 L 178.73125 171.001162 Z M 262.356255 56.912613 L 262.356255 125.360534 C 262.356255 127.641785 263.163547 129.600118 264.783339 131.245951 C 266.429172 132.865743 268.387505 133.673035 270.668756 133.673035 C 272.950006 133.673035 274.903131 132.865743 276.522923 131.245951 C 278.137506 129.600118 278.950006 127.641785 278.950006 125.360534 C 278.950006 123.074076 278.137506 121.100117 276.522923 119.428242 C 274.903131 117.730326 272.950006 116.881367 270.668756 116.881367 L 264.62188 116.881367 L 264.62188 76.813656 L 270.668756 76.813656 C 277.408339 76.813656 283.684381 78.08449 289.491674 80.631365 C 295.304174 83.17824 300.434383 86.730324 304.892716 91.298032 C 309.35105 95.860532 312.825008 101.068866 315.3198 106.93345 C 317.809384 112.798034 319.059384 119.094909 319.059384 125.834493 C 319.059384 132.46991 317.809384 138.730327 315.3198 144.615744 C 312.825008 150.480328 309.35105 155.641786 304.892716 160.094912 C 300.434383 164.553245 295.304174 168.027204 289.491674 170.521996 C 283.684381 173.016788 277.408339 174.261579 270.668756 174.261579 C 264.038547 174.261579 257.77813 173.016788 251.887504 170.521996 C 246.028129 168.027204 240.86667 164.553245 236.408337 160.094912 C 231.955211 155.641786 228.476045 150.480328 225.986461 144.615744 C 223.491669 138.730327 222.241669 132.46991 222.241669 125.834493 L 222.241669 56.912613 Z M 373.965637 129.777201 C 376.382304 128.475118 377.798971 126.657409 378.226054 124.324076 C 378.647929 121.964701 378.132304 119.839701 376.673971 117.954284 C 375.215637 116.048034 372.798971 115.0897 369.429179 115.0897 C 366.590637 114.985534 364.444803 115.782409 362.98647 117.480326 C 361.522928 119.152201 360.76772 121.100117 360.715637 123.329284 C 360.663553 125.558451 361.314595 127.548035 362.663553 129.298035 C 364.01772 131.021993 366.168762 131.886576 369.11147 131.886576 L 415.231265 131.886576 L 415.231265 171.001162 L 369.11147 171.001162 C 362.585428 171.001162 356.496886 169.777204 350.845844 167.339704 C 345.194802 164.896995 340.194802 161.501162 335.845843 157.152203 C 331.496885 152.803245 328.101051 147.803244 325.658343 142.152202 C 323.215634 136.50116 321.996884 130.412618 321.996884 123.886576 C 321.996884 115.318867 323.918759 107.506367 327.767718 100.449074 C 331.642718 93.365741 337.132302 87.688657 344.241677 83.417823 C 351.351053 79.120948 359.79897 76.917823 369.590637 76.813656 C 374.684387 76.813656 379.814596 77.30324 384.99168 78.282406 C 390.163555 79.24074 395.028139 81.08449 399.590639 83.813657 C 404.158348 86.52199 407.950015 90.537615 410.976056 95.870949 C 412.272932 98.152199 413.21564 100.870949 413.798973 104.0272 C 414.408348 107.157408 414.632307 110.381367 414.476057 113.699075 C 414.314598 117.016784 413.637515 120.120951 412.444807 123.011576 C 411.252098 125.876159 409.408348 128.131368 406.913556 129.777201 Z M 373.965637 129.777201 " stroke="#ffffff" stroke-width="4.88997" stroke-opacity="1" stroke-miterlimit="4"/><g fill="#545454" fill-opacity="1"><g transform="translate(38.611727, 235.135847)"><g><path d="M 20.296875 -55.015625 L 1.21875 -55.015625 L 1.21875 -85.578125 L 71.03125 -85.578125 L 71.03125 -55.015625 L 51.953125 -55.015625 L 51.953125 0 L 20.296875 0 Z M 20.296875 -55.015625 "/></g></g></g><g fill="#545454" fill-opacity="1"><g transform="translate(110.854543, 235.135847)"><g><path d="M 44.75 -68.578125 L 44.75 -39.859375 L 33.125 -39.859375 C 31.90625 -39.859375 31.296875 -39.242188 31.296875 -38.015625 L 31.296875 0 L 1.21875 0 L 1.21875 -36.796875 C 1.21875 -43.234375 2.601562 -48.816406 5.375 -53.546875 C 8.144531 -58.273438 11.992188 -61.960938 16.921875 -64.609375 C 21.859375 -67.253906 27.503906 -68.578125 33.859375 -68.578125 Z M 44.75 -68.578125 "/></g></g></g><g fill="#545454" fill-opacity="1"><g transform="translate(156.693896, 235.135847)"><g><path d="M 1.21875 -68.578125 L 31.296875 -68.578125 L 31.296875 0 L 1.21875 0 Z M 1.21875 -68.578125 "/></g></g></g><g fill="#545454" fill-opacity="1"><g transform="translate(189.209271, 235.135847)"><g><path d="M 31.421875 -85.578125 L 31.421875 -34.234375 C 31.421875 -32.515625 32.03125 -31.046875 33.25 -29.828125 C 34.46875 -28.609375 35.9375 -28 37.65625 -28 C 39.363281 -28 40.828125 -28.609375 42.046875 -29.828125 C 43.273438 -31.046875 43.890625 -32.515625 43.890625 -34.234375 C 43.890625 -35.941406 43.273438 -37.425781 42.046875 -38.6875 C 40.828125 -39.957031 39.363281 -40.59375 37.65625 -40.59375 L 33.125 -40.59375 L 33.125 -70.65625 L 37.65625 -70.65625 C 42.707031 -70.65625 47.410156 -69.695312 51.765625 -67.78125 C 56.128906 -65.875 59.984375 -63.207031 63.328125 -59.78125 C 66.671875 -56.351562 69.28125 -52.4375 71.15625 -48.03125 C 73.03125 -43.632812 73.96875 -38.910156 73.96875 -33.859375 C 73.96875 -28.890625 73.03125 -24.203125 71.15625 -19.796875 C 69.28125 -15.398438 66.671875 -11.53125 63.328125 -8.1875 C 59.984375 -4.84375 56.128906 -2.234375 51.765625 -0.359375 C 47.410156 1.503906 42.707031 2.4375 37.65625 2.4375 C 32.6875 2.4375 28 1.503906 23.59375 -0.359375 C 19.195312 -2.234375 15.328125 -4.84375 11.984375 -8.1875 C 8.640625 -11.53125 6.03125 -15.398438 4.15625 -19.796875 C 2.28125 -24.203125 1.34375 -28.890625 1.34375 -33.859375 L 1.34375 -85.578125 Z M 31.421875 -85.578125 "/></g></g></g><g fill="#545454" fill-opacity="1"><g transform="translate(264.263568, 235.135847)"><g><path d="M 40.09375 -30.921875 C 41.882812 -31.898438 42.941406 -33.265625 43.265625 -35.015625 C 43.597656 -36.773438 43.210938 -38.367188 42.109375 -39.796875 C 41.015625 -41.222656 39.203125 -41.9375 36.671875 -41.9375 C 34.554688 -42.007812 32.945312 -41.414062 31.84375 -40.15625 C 30.75 -38.894531 30.179688 -37.425781 30.140625 -35.75 C 30.097656 -34.082031 30.582031 -32.597656 31.59375 -31.296875 C 32.613281 -29.992188 34.226562 -29.34375 36.4375 -29.34375 L 71.03125 -29.34375 L 71.03125 0 L 36.4375 0 C 31.539062 0 26.972656 -0.914062 22.734375 -2.75 C 18.492188 -4.582031 14.742188 -7.128906 11.484375 -10.390625 C 8.222656 -13.648438 5.675781 -17.398438 3.84375 -21.640625 C 2.007812 -25.878906 1.09375 -30.441406 1.09375 -35.328125 C 1.09375 -41.765625 2.539062 -47.628906 5.4375 -52.921875 C 8.332031 -58.222656 12.445312 -62.484375 17.78125 -65.703125 C 23.125 -68.921875 29.460938 -70.570312 36.796875 -70.65625 C 40.628906 -70.65625 44.476562 -70.285156 48.34375 -69.546875 C 52.21875 -68.816406 55.863281 -67.429688 59.28125 -65.390625 C 62.707031 -63.359375 65.5625 -60.347656 67.84375 -56.359375 C 68.820312 -54.648438 69.535156 -52.613281 69.984375 -50.25 C 70.429688 -47.882812 70.59375 -45.457031 70.46875 -42.96875 C 70.351562 -40.488281 69.847656 -38.164062 68.953125 -36 C 68.054688 -33.84375 66.671875 -32.148438 64.796875 -30.921875 Z M 40.09375 -30.921875 "/></g></g></g><g clip-path="url(#4baed36b97)"><path fill="#ef4136" d="M 170.125 164.5 C 170.125 164.5 157.597656 165.175781 154.015625 152.464844 L 156.800781 154.5 C 156.800781 154.5 153.320312 146.621094 161.042969 137.21875 L 162.074219 141.878906 C 162.074219 141.878906 161.214844 127.246094 177.511719 123.761719 C 177.511719 123.761719 173.691406 130.972656 180.394531 144.09375 C 180.394531 144.09375 180.480469 140.949219 183.449219 140.015625 C 183.449219 140.015625 182.90625 142.183594 184.734375 145.261719 C 187.21875 149.460938 187.027344 154.753906 183.996094 158.582031 C 181.324219 161.953125 176.828125 164.660156 170.125 164.5 Z M 170.125 164.5 " fill-opacity="1" fill-rule="nonzero"/></g><g clip-path="url(#c64991500a)"><path fill="#000000" d="M 169.777344 165.011719 C 168.820312 165.011719 166.1875 164.894531 163.230469 163.71875 C 159.855469 162.382812 155.4375 159.367188 153.527344 152.605469 C 153.46875 152.398438 153.546875 152.175781 153.726562 152.050781 C 153.90625 151.925781 154.140625 151.929688 154.316406 152.058594 L 155.859375 153.1875 C 155.207031 150.398438 154.730469 144.105469 160.648438 136.898438 C 160.773438 136.746094 160.972656 136.679688 161.160156 136.722656 C 161.347656 136.769531 161.492188 136.917969 161.535156 137.105469 L 161.835938 138.457031 C 162.066406 137.148438 162.480469 135.570312 163.214844 133.917969 C 164.925781 130.082031 168.777344 125.113281 177.40625 123.265625 C 177.597656 123.226562 177.792969 123.300781 177.914062 123.457031 C 178.03125 123.613281 178.050781 123.824219 177.957031 124 C 177.921875 124.0625 174.605469 130.683594 180.199219 142.550781 C 180.625 141.386719 181.546875 140.082031 183.296875 139.53125 C 183.472656 139.476562 183.664062 139.523438 183.796875 139.648438 C 183.933594 139.773438 183.988281 139.960938 183.941406 140.136719 C 183.9375 140.15625 183.488281 142.167969 185.167969 145.003906 C 187.828125 149.492188 187.523438 154.945312 184.394531 158.894531 C 182.105469 161.78125 177.773438 165.183594 170.132812 165.007812 C 170.082031 165.007812 169.960938 165.011719 169.777344 165.011719 Z M 170.125 163.992188 C 170.132812 163.992188 170.132812 163.992188 170.140625 163.992188 C 177.375 164.164062 181.453125 160.972656 183.601562 158.265625 C 186.46875 154.648438 186.742188 149.644531 184.296875 145.519531 C 183.082031 143.46875 182.863281 141.785156 182.871094 140.808594 C 181 141.839844 180.90625 144.003906 180.902344 144.105469 C 180.894531 144.335938 180.734375 144.535156 180.507812 144.585938 C 180.277344 144.636719 180.050781 144.527344 179.945312 144.320312 C 174.5 133.671875 175.859375 126.863281 176.675781 124.476562 C 170.59375 126 166.378906 129.3125 164.144531 134.332031 C 162.394531 138.269531 162.578125 141.816406 162.582031 141.851562 C 162.59375 142.113281 162.40625 142.34375 162.144531 142.382812 C 161.882812 142.417969 161.636719 142.246094 161.578125 141.988281 L 160.78125 138.375 C 158.800781 140.996094 156.6875 144.816406 156.535156 149.34375 C 156.433594 152.355469 157.257812 154.277344 157.265625 154.296875 C 157.355469 154.507812 157.296875 154.753906 157.117188 154.894531 C 156.9375 155.035156 156.6875 155.042969 156.5 154.90625 L 154.980469 153.796875 C 156.5625 158.101562 159.445312 161.117188 163.566406 162.761719 C 167.007812 164.136719 170.070312 163.996094 170.097656 163.992188 C 170.105469 163.992188 170.117188 163.992188 170.125 163.992188 Z M 170.125 163.992188 " fill-opacity="1" fill-rule="nonzero"/></g><path fill="#ffdb00" d="M 167.5 162.109375 C 163.707031 160.730469 159.085938 157.167969 161.457031 147.390625 C 161.535156 147.074219 161.957031 147.007812 162.125 147.285156 C 162.835938 148.460938 164.335938 150.632812 166.074219 151.355469 C 166.785156 151.652344 167.503906 150.941406 167.210938 150.230469 C 165.867188 146.949219 163.195312 137.949219 169.8125 129.652344 C 170.039062 129.367188 170.5 129.554688 170.457031 129.917969 C 170.097656 133.007812 169.828125 140.992188 176.046875 144.09375 C 182.976562 147.554688 182.894531 159.738281 174.25 162.375 C 172.039062 163.050781 169.667969 162.898438 167.5 162.109375 Z M 167.5 162.109375 " fill-opacity="1" fill-rule="nonzero"/><path fill="#ffffff" d="M 173.632812 160.230469 C 172.417969 161.894531 169.910156 162.015625 168.648438 160.386719 C 167.824219 159.328125 167.699219 157.683594 169.859375 155.195312 C 173.457031 151.046875 170.863281 146.21875 169.203125 143.914062 C 169.082031 143.746094 169.300781 143.550781 169.453125 143.691406 C 172.394531 146.351562 178.695312 153.296875 173.632812 160.230469 Z M 173.632812 160.230469 " fill-opacity="1" fill-rule="nonzero"/></svg>